<?xml version="1.0" encoding="UTF-8"?><svg id="Layer_2" xmlns="http://www.w3.org/2000/svg" viewBox="0 0 588.41889 166.1357"><defs><style>.cls-1{fill:#fec938;}.cls-2{fill:#c3cf21;}.cls-3{fill:#374245;}.cls-4{fill:#f99d31;}.cls-5{fill:#00b4f0;}</style></defs><g id="Layer_2-2"><path class="cls-4" d="M137.2685,135.917c-11.9477-7.4312-21.56539-16.0942-28.7099-25.8838-9.0777-12.437-14.0796-26.4912-14.8667-41.77-1.0293-19.9834,5.3061-36.7637,10.80121-47.3223,4.21339-8.0942,9.36969-15.2778,14.93069-20.9409-44.5459,22.0571-50.4312,63.687-50.4312,63.687.0245.126.0533.2559.0791.3828,4.3946,13.7178,11.1646,27.1538,20.587,38.8296,10.1557,12.5835,25.3696,25.5889,47.6098,33.0176Z"/><path class="cls-5" d="M97.7695,68.0527c.8662,16.8101,7.5723,38.6538,31.4941,57.3389-6.3867-7.77-23.6757-32.5513-9.4819-59.9614,7.6899-14.8491,20.0112-27.4126,52.58741-31.3325,0,0-47.062-10.794-74.20211,21.0429-.4688,4.2564-.6206,8.5762-.3975,12.9121Z"/><path class="cls-2" d="M86.4809,105.4639c-17.3681-21.522-23.9004-45.4453-26.3208-61.7251-.3657-2.4575-.6596-4.9048-.8872-7.3345-3.7187,6.7412-10.8442,21.5596-11.9404,37.9888-.7398,11.083.6113,20.3593,1.646,25.4922,19.75,18.1211,62.0537,37.2417,86.9814,40.4165-20.4819-8.792-37.831-20.4058-49.479-34.8379Z"/><path class="cls-3" d="M137.2685,135.917c.0928.0586.1895.1152.2822.1738-.0517-.0429-.1044-.0879-.1552-.1328-.043-.0127-.086-.0273-.127-.041Z"/><path class="cls-1" d="M140.1484,146.2158c-20.0659-4.0097-44.9941-11.0742-68.3638-24.6367-17.9384-10.4116-32.7881-23.7993-42.0244-37.4722l-.2226-.0122s-9.5987,43.0025,12.3925,62.1944l98.21829-.0733Z"/><path class="cls-5" d="M119.7837,159.669s6.3105,6.4667,15.4838,6.4667c9.1739,0,15.3477-6.4667,15.3477-6.4667h118.9941l-23.8496-8.0977H25.0927L0,159.669h119.7837Z"/><path class="cls-5" d="M316.93939,64.8486c-.5381,1.7676-1.499,4.6495-2.1904,5.918-1.0762.269-4.3438,1.0376-7.0713,1.0376-9.68459,0-13.9111-6.6484-13.9111-12.7197,0-8.0703,6.18751-13.4116,14.9101-13.4116,3.1123,0,5.7637.8452,6.8018,1.0371.30661,2.1523.5771,3.7666.80661,5.8798l-1.19041.2691c-1.0381-4.1504-3.459-5.7256-7.417-5.7256-6.2637,0-9.6074,5.3794-9.6074,11.1826,0,7.1475,4.1123,12.0279,9.8769,12.0279,3.8028,0,5.87991-2.1133,7.83791-5.918l1.15429.4228Z"/><path class="cls-5" d="M339.99699,65.1177c-.2295,1.268-1.0371,4.957-1.3818,6.1098h-17.6387v-1.1142c3.22761-.2305,3.5733-.5,3.5733-3.7661v-15.2564c0-3.2661-.2686-3.4585-3.3819-3.7275v-1.1143h10.337v1.1143c-2.9971.2305-3.3809.4233-3.3809,3.7275v15.1411c0,2.0367.1924,2.7671.9219,3.1509.7295.4234,1.998.4614,3.5361.4614,2.0352,0,3.3428-.1923,4.2266-1.1914.6923-.7685,1.3828-1.998,1.998-3.8042l1.1904.2691Z"/><path class="cls-5" d="M363.51749,65.1177c-.19139,1.3452-.998,4.9189-1.3056,6.1098h-18.7549v-1.1142c3.46-.2691,3.8057-.5767,3.8057-3.7276v-15.1792c0-3.4199-.3457-3.5742-3.26659-3.8432v-1.1143h17.29289c0,.9224.1924,3.5357.3467,5.5723l-1.1933.1919c-.3448-1.5752-.7676-2.4976-1.2676-3.2661-.5762-.8452-1.6133-1.1148-4.26469-1.1148h-2.72851c-1.23049,0-1.3447.1153-1.3447,1.2686v8.646h3.458c3.4199,0,3.6894-.3071,4.1504-2.8819h1.1523v7.4165h-1.1523c-.499-2.7285-.8067-2.9589-4.1504-2.9589h-3.458v7.1093c0,1.8062.2295,2.6905.9219,3.1509.7294.4614,2.0752.4614,3.9199.4614,2.7666,0,3.8808-.3076,4.7265-1.268.6914-.8072,1.38291-2.1133,1.96-3.6509l1.1523.1924Z"/><path class="cls-5" d="M392.34079,47.4019c-2.6123.269-3.1514.6533-4.6113,4.1504-1.0752,2.5747-5.0342,12.143-7.9551,20.06h-1.3067c-2.5742-7.0332-5.8408-15.4873-7.915-20.7519-1.1543-2.8819-1.76759-3.2281-4.0742-3.4585v-1.1529h9.7998v1.1529c-2.7676.3071-2.8447.6152-2.2676,2.2675,1.0371,2.8052,3.8809,10.2989,6.2256,16.3702h.0771c1.9981-4.9571,4.6495-11.8741,5.8409-15.6402.7685-2.3056.5761-2.6518-2.53619-2.9975v-1.1529h8.72269v1.1529Z"/><path class="cls-5" d="M415.0341,65.1177c-.19141,1.3452-.998,4.9189-1.30661,6.1098h-18.7529v-1.1142c3.459-.2691,3.8047-.5767,3.8047-3.7276v-15.1792c0-3.4199-.3457-3.5742-3.2657-3.8432v-1.1143h17.292c0,.9224.1934,3.5357.3467,5.5723l-1.1924.1919c-.3447-1.5752-.7675-2.4976-1.2675-3.2661-.5762-.8452-1.61429-1.1148-4.2657-1.1148h-2.7285c-1.2295,0-1.3447.1153-1.3447,1.2686v8.646h3.458c3.4209,0,3.6894-.3071,4.1504-2.8819h1.1533v7.4165h-1.1533c-.5-2.7285-.8067-2.9589-4.1504-2.9589h-3.458v7.1093c0,1.8062.2305,2.6905.9219,3.1509.7304.4614,2.0752.4614,3.9199.4614,2.7666,0,3.88081-.3076,4.7265-1.268.6914-.8072,1.3838-2.1133,1.961-3.6509l1.15131.1924Z"/><path class="cls-5" d="M438.05469,65.1177c-.2305,1.268-1.0372,4.957-1.3838,6.1098h-17.6377v-1.1142c3.2275-.2305,3.5732-.5,3.5732-3.7661v-15.2564c0-3.2661-.2695-3.4585-3.3818-3.7275v-1.1143h10.3379v1.1143c-2.9981.2305-3.3819.4233-3.3819,3.7275v15.1411c0,2.0367.1914,2.7671.9219,3.1509.7305.4234,1.9981.4614,3.5352.4614,2.0371,0,3.3437-.1923,4.2275-1.1914.6914-.7685,1.3838-1.998,1.998-3.8042l1.1915.2691Z"/><path class="cls-5" d="M456.17479,71.2275v-1.1142c2.3838-.3071,2.6904-.6533,2.1904-2.1904-.46-1.46-1.1904-3.4205-1.998-5.649h-8.0694c-.5771,1.6524-1.1142,3.2276-1.6142,4.8033-.7686,2.3442-.5,2.729,2.3818,3.0361v1.1142h-8.415v-1.1142c2.498-.3457,2.997-.6152,4.3418-3.9966l7.91691-20.0596,1.34479-.3842c2.3818,6.6093,4.957,13.8339,7.417,20.4819,1.1904,3.3052,1.7285,3.6894,4.2265,3.9585v1.1142h-9.7226ZM452.52439,51.0523h-.11529c-1.19141,3.1899-2.34371,6.4179-3.497,9.5307h6.87889l-3.2666-9.5307Z"/><path class="cls-5" d="M496.18059,47.3633c-2.1513.1152-3.0351.6152-3.22748,2.3061-.11522,1.191-.23052,2.9204-.23052,6.4556v15.4487h-1.3066l-16.294-19.9448h-.0761v9.4536c0,3.4966.11421,5.3418.2304,6.4561.1914,1.8828,1.0371,2.4209,3.6885,2.5747v1.1142h-9.1455v-1.1142c2.1895-.1538,3.1504-.6533,3.34281-2.4981.11619-1.1909.26949-3.0361.26949-6.5327v-8.3774c0-2.7285-.0771-2.9976-.8066-3.9195-.7696-.9609-1.5762-1.2685-3.38189-1.4223v-1.1143h5.95609l15.79391,18.8301h.11528v-8.9541c0-3.4971-.1534-5.2646-.2686-6.3789-.1924-1.6909-1.0762-2.229-3.80468-2.3828v-1.1143h9.14548v1.1143Z"/><path class="cls-5" d="M511.51659,46.249c4.8799,0,8.4922.9991,10.9131,3.3052,1.8837,1.8062,3.2666,4.6113,3.2666,8.2231,0,4.6119-1.8057,8.0318-4.7266,10.2608-2.8818,2.1904-6.7637,3.1894-11.4902,3.1894h-9.2227v-1.1142c3.2666-.2305,3.5732-.4614,3.5732-3.7276v-15.2949c0-3.2661-.3066-3.4585-3.2275-3.6889v-1.1529h10.9141ZM507.44239,66.1167c0,2.8823,1.1533,3.6509,3.9199,3.6509,6.84082,0,10.2226-5.1113,10.2226-11.4136,0-3.9199-1.42278-7.2632-4.2656-9.0308-1.6914-1.1909-3.8818-1.7294-6.4561-1.7294-1.6142,0-2.53708.2309-2.9208.5-.3467.269-.5.7299-.5,2.1899v15.833Z"/><path class="cls-5" d="M275.58589,105.8169v-1.1147c3.07421-.3077,3.2285-.5381,3.1895-4.4961l-.11529-15.5245h-.15331l-9.2236,20.8658h-.8067l-8.4541-20.3286h-.1152l-.53809,10.7602c-.15331,3.1514-.15331,4.8804-.11421,6.3413.0761,1.8062.9599,2.1128,3.5351,2.3433v1.1533h-8.9932v-1.1533c2.1905-.2305,2.959-.6914,3.2286-2.2671.1914-1.3067.4609-3.0357.7295-7.0708l.5771-7.9165c.3457-4.8804.1152-5.1109-3.3438-5.4566v-1.1142h6.6104l8.4922,18.7915,8.6465-18.7915h6.7636v1.1142c-3.3437.3457-3.5742.4615-3.458,4.2657l.3838,13.9492c.0772,3.9966.2295,4.227,3.4961,4.5347v1.1147h-10.3369Z"/><path class="cls-5" d="M310.09859,99.7065c-.1934,1.3448-1,4.9185-1.3066,6.1104h-18.75389v-1.1147c3.45889-.2691,3.80459-.5757,3.80459-3.7271v-15.1792c0-3.4204-.3457-3.5737-3.26659-3.8433v-1.1142h17.294c0,.9223.19039,3.5351.34469,5.5722l-1.1914.1919c-.3457-1.5756-.7685-2.498-1.2676-3.2661-.5761-.8462-1.6142-1.1142-4.2656-1.1142h-2.7285c-1.2295,0-1.3447.1147-1.3447,1.2676v8.6464h3.458c3.4209,0,3.6894-.3071,4.1504-2.8823h1.1533v7.417h-1.1533c-.5-2.7285-.8067-2.9595-4.1504-2.9595h-3.458v7.1094c0,1.8062.2304,2.6899.9218,3.1514.7305.4609,2.0752.4609,3.919.4609,2.7676,0,3.8818-.3066,4.7285-1.2676.6904-.8076,1.38181-2.1142,1.958-3.6513l1.1543.1923Z"/><path class="cls-5" d="M334.38569,86.9102c-.4219-1.8833-.80659-2.8829-1.30659-3.5362-.65241-.8452-1.30571-1.1518-4.11141-1.1518h-2.5361v18.7905c0,3.0752.3076,3.459,3.9199,3.6895v1.1147h-11.2968v-1.1147c3.458-.2305,3.7646-.6143,3.7646-3.6895v-18.7905h-2.1904c-3.1895,0-3.958.3452-4.458,1.1904-.461.6533-.84479,1.7676-1.2676,3.4976h-1.1914c.1533-2.3829.3847-4.9576.4609-7.0328h.8076c.5381.8838,1.0371.961,2.1133.961h15.2569c1.0371,0,1.3828-.2305,1.9589-.961h.8467c0,1.7291.1904,4.6499.3838,6.917l-1.1543.1158Z"/><path class="cls-5" d="M362.70989,106.1245c-.42179,0-.8447,0-1.3056-.0386-3.2676-.1543-4.8047-1.038-6.53319-3.5351-1.26861-1.8062-2.61431-4.1509-3.72761-6.0332-.69239-1.1148-1.3447-1.5757-3.18939-1.5757h-1.11531v6.0332c0,3.2275.3467,3.4966,3.3819,3.7271v1.1147h-10.376v-1.1147c3.1133-.2305,3.458-.4996,3.458-3.7271v-15.3335c0-3.2275-.3447-3.4194-3.3037-3.689v-1.1142h9.7607c2.92,0,4.8037.3457,6.2637,1.3452,1.5752.9985,2.5742,2.6899,2.5742,5.0337,0,3.3047-2.0742,5.3027-4.8799,6.5327.65341,1.2295,2.2286,3.8047,3.3819,5.5337,1.3838,2.0366,2.1904,3.0742,3.0742,4.0352.999,1.0756,1.8447,1.5371,2.6894,1.7675l-.1533,1.0381ZM348.53019,93.6343c1.88291,0,3.1504-.3067,4.1114-1.0757,1.4218-1.1528,2.0371-2.6899,2.0371-4.7271,0-4.1494-2.6514-5.6865-5.419-5.6865-1.1142,0-1.7285.1533-2.0361.3838-.26949.2305-.3848.6533-.3848,1.6528v9.4527h1.6914Z"/><path class="cls-5" d="M391.30269,93.02c0,8.3003-5.8408,13.3726-12.9111,13.3726-7.0713,0-12.60549-5.4561-12.60549-12.8345,0-6.8408,4.84279-13.2964,13.02729-13.2964,6.6485,0,12.4893,5.0728,12.4893,12.7583ZM370.09079,92.5586c0,7.0713,3.7656,12.4131,9.1074,12.4131,4.1504,0,7.8018-3.5742,7.8018-10.9136,0-8.0317-3.9971-12.3745-8.9541-12.3745-4.1895,0-7.9551,3.7661-7.9551,10.875Z"/><path class="cls-5" d="M405.94719,80.8384c2.7676,0,4.958.4614,6.4942,1.5757,1.5761,1.1528,2.5361,2.9585,2.5361,5.4565,0,5.0342-3.7275,7.4165-7.5312,7.9165-.57619.0772-1.2686.0772-1.6914.0386l-2.8057-.7305v5.9175c0,3.2285.3076,3.459,3.7275,3.6895v1.1147h-10.68259v-1.1147c3.03519-.2305,3.38179-.5381,3.38179-3.7271v-15.2563c0-3.3819-.3466-3.5352-3.1503-3.7662v-1.1142h9.7216ZM402.94919,93.7886c.46191.1924,1.499.4228,2.6523.4228,2.3057,0,5.3418-1.268,5.3418-6.1865,0-4.1894-2.57519-5.9184-5.6113-5.9184-.999,0-1.7295.1918-1.9971.4609-.2705.2305-.3857.6919-.3857,1.6904v9.5308Z"/><path class="cls-5" d="M445.4521,93.02c0,8.3003-5.83981,13.3726-12.91111,13.3726-7.0703,0-12.6045-5.4561-12.6045-12.8345,0-6.8408,4.8418-13.2964,13.0273-13.2964,6.6485,0,12.48831,5.0728,12.48831,12.7583ZM424.24019,92.5586c0,7.0713,3.7666,12.4131,9.1084,12.4131,4.1494,0,7.8008-3.5742,7.8008-10.9136,0-8.0317-3.9971-12.3745-8.9541-12.3745-4.1885,0-7.9551,3.7661-7.9551,10.875Z"/><path class="cls-5" d="M468.97459,99.7065c-.23049,1.2686-1.0371,4.9571-1.3838,6.1104h-17.63869v-1.1147c3.22849-.2305,3.57419-.4996,3.57419-3.7657v-15.2563c0-3.2661-.2695-3.458-3.3818-3.7276v-1.1142h10.3369v1.1142c-2.9971.231-3.3808.4229-3.3808,3.7276v15.1406c0,2.0366.1914,2.7671.9218,3.1514.7305.4223,1.9981.4609,3.5352.4609,2.0371,0,3.3437-.1919,4.22751-1.1904.69139-.7691,1.38379-1.9995,1.99809-3.8047l1.1914.2685Z"/><path class="cls-5" d="M472.81739,105.8169v-1.1147c3.0751-.2305,3.4208-.461,3.4208-3.7271v-15.2563c0-3.2662-.3457-3.4966-3.4208-3.7662v-1.1142h10.415v1.1142c-3.0742.2696-3.4209.5-3.4209,3.7662v15.2563c0,3.2661.3467,3.4966,3.4209,3.7271v1.1147h-10.415Z"/><path class="cls-5" d="M508.36619,86.9102c-.4229-1.8833-.8076-2.8829-1.3067-3.5362-.6543-.8452-1.3076-1.1518-4.1123-1.1518h-2.53608v18.7905c0,3.0752.30758,3.459,3.91988,3.6895v1.1147h-11.2988v-1.1147c3.459-.2305,3.7656-.6143,3.7656-3.6895v-18.7905h-2.1894c-3.1895,0-3.958.3452-4.458,1.1904-.461.6533-.8457,1.7676-1.2676,3.4976h-1.1924c.1543-2.3829.3848-4.9576.4619-7.0328h.8076c.5371.8838,1.0371.961,2.1133.961h15.25592c1.03708,0,1.38378-.2305,1.95988-.961h.8448c0,1.7291.19232,4.6499.3847,6.917l-1.1523.1158Z"/><path class="cls-5" d="M524.83299,105.8169v-1.1147c2.3828-.3077,2.6904-.6529,2.1904-2.19-.46-1.4609-1.1904-3.4204-1.998-5.6494h-8.0694c-.5771,1.6528-1.1142,3.2285-1.6142,4.8042-.7686,2.3437-.5,2.7275,2.3818,3.0352v1.1147h-8.415v-1.1147c2.498-.3453,2.997-.6143,4.3418-3.9961l7.917-20.0596,1.34472-.3848c2.38178,6.6099,4.957,13.834,7.417,20.4829,1.19038,3.3047,1.72848,3.6885,4.22648,3.9576v1.1147h-9.7226ZM521.18259,85.6416h-.1152c-1.1915,3.1899-2.3438,6.418-3.4971,9.5308h6.8789l-3.2666-9.5308Z"/><path class="cls-5" d="M564.83879,81.9526c-2.1513.1153-3.0351.6148-3.2275,2.3052-.11518,1.1919-.2305,2.9209-.2305,6.457v15.4473h-1.3066l-16.294-19.9438h-.07608v9.4531c0,3.4976.11418,5.3413.23038,6.4565.1914,1.8828,1.0371,2.4209,3.6885,2.5743v1.1147h-9.1455v-1.1147c2.1895-.1534,3.1504-.6529,3.3428-2.4981.1162-1.1914.2695-3.0351.2695-6.5327v-8.377c0-2.7285-.0771-2.998-.8066-3.9204-.7696-.9599-1.5762-1.2675-3.3819-1.4214v-1.1142h5.9561l15.7939,18.8291h.1153v-8.9527c0-3.4975-.1534-5.2651-.2696-6.3798-.1914-1.6905-1.0752-2.2285-3.8037-2.3824v-1.1142h9.1455v1.1142Z"/><path class="cls-5" d="M244.91889,121.3442c-.6933-2.4209-1.8066-5.1494-5.0732-5.1494-2.8057,0-4.1885,2.0367-4.1885,4.1509,0,2.6899,1.7676,3.9961,4.87991,5.5718,3.18939,1.6142,6.64839,3.458,6.64839,7.685,0,4.1123-3.459,7.379-8.6855,7.379-1.5362,0-2.8057-.2686-3.7657-.5762-.998-.3086-1.57519-.6153-1.998-.8067-.3076-.8466-.8066-4.1132-1.0381-6.0722l1.1914-.3076c.6153,2.3818,2.4209,6.3408,6.3408,6.3408,2.80571,0,4.4961-1.7676,4.4961-4.4961s-2.0361-4.1123-4.9189-5.6494c-2.7276-1.4209-6.417-3.3819-6.417-7.6089,0-3.7656,3.0361-6.9556,8.0703-6.9556,1.9199,0,3.6113.5,4.919.9224.1523,1.3838.3837,2.9209.6914,5.3418l-1.1524.2304Z"/><path class="cls-5" d="M275.31639,134.0264c-.5371,1.7676-1.4981,4.6494-2.1905,5.9179-1.0752.2686-4.3427,1.0372-7.0712,1.0372-9.68359,0-13.9112-6.6485-13.9112-12.7203,0-8.0703,6.1875-13.4116,14.9112-13.4116,3.1123,0,5.7636.8462,6.8017,1.0381.30671,2.1519.5762,3.7661.80671,5.8789l-1.19151.2695c-1.0371-4.1499-3.4589-5.7255-7.4169-5.7255-6.2637,0-9.6065,5.3798-9.6065,11.1826,0,7.1474,4.1113,12.0273,9.876,12.0273,3.8047,0,5.87991-2.1133,7.83891-5.918l1.15329.4239Z"/><path class="cls-5" d="M306.17669,116.541c-3.1133.2691-3.4209.4614-3.4209,3.6885v15.3711c0,3.2285.3076,3.4209,3.4209,3.6894v1.1153h-10.5683v-1.1153c3.2285-.2685,3.5351-.4609,3.5351-3.6894v-7.5698h-12.6035v7.5698c0,3.2285.3076,3.4209,3.3818,3.6894v1.1153h-10.3378v-1.1153c3.03511-.2685,3.3427-.4609,3.3427-3.6894v-15.3711c0-3.2271-.30759-3.4194-3.459-3.6885v-1.1142h10.2618v1.1142c-2.8819.2691-3.1895.4614-3.1895,3.6885v6.1108h12.6035v-6.1108c0-3.1885-.3066-3.4194-3.2656-3.6885v-1.1142h10.2988v1.1142Z"/><path class="cls-5" d="M336.26949,127.6079c0,8.3013-5.8418,13.3736-12.9121,13.3736s-12.6045-5.4571-12.6045-12.835c0-6.8408,4.8418-13.2969,13.0273-13.2969,6.6475,0,12.4893,5.0733,12.4893,12.7583ZM315.05659,127.147c0,7.0708,3.7666,12.4126,9.1074,12.4126,4.1514,0,7.8008-3.5742,7.8008-10.9136,0-8.0312-3.9961-12.374-8.9531-12.374-4.1885,0-7.9551,3.7656-7.9551,10.875Z"/><path class="cls-5" d="M367.70599,127.6079c0,8.3013-5.8408,13.3736-12.9111,13.3736-7.0713,0-12.6055-5.4571-12.6055-12.835,0-6.8408,4.8418-13.2969,13.0274-13.2969,6.6484,0,12.4892,5.0733,12.4892,12.7583ZM346.4941,127.147c0,7.0708,3.76559,12.4126,9.10739,12.4126,4.1504,0,7.8008-3.5742,7.8008-10.9136,0-8.0312-3.9971-12.374-8.9531-12.374-4.1895,0-7.95509,3.7656-7.95509,10.875Z"/><path class="cls-5" d="M391.22749,134.294c-.23139,1.2695-1.0381,4.958-1.3838,6.1113h-17.63959v-1.1153c3.22849-.2304,3.57419-.5,3.57419-3.7656v-15.2563c0-3.2657-.2686-3.458-3.3809-3.7271v-1.1142h10.3369v1.1142c-2.997.2305-3.3818.4229-3.3818,3.7271v15.1411c0,2.0371.1924,2.7676.9219,3.1504.7314.4238,1.999.4619,3.5361.4619,2.0371,0,3.3438-.1924,4.22761-1.1904.69139-.7696,1.38279-2,1.998-3.8047l1.19139.2676Z"/><path class="cls-5" d="M418.62889,115.4268c4.8808,0,8.49221.9985,10.914,3.3047,1.8828,1.8061,3.2657,4.6108,3.2657,8.2231,0,4.6128-1.8057,8.0317-4.7266,10.2612-2.8818,2.1895-6.7637,3.1895-11.4893,3.1895h-9.22359v-1.1153c3.26659-.2304,3.57419-.4609,3.57419-3.7265v-15.2954c0-3.2657-.3076-3.458-3.2285-3.6885v-1.1528h10.9141ZM414.55559,135.294c0,2.8828,1.1534,3.6503,3.92,3.6503,6.8398,0,10.2216-5.1113,10.2216-11.4126,0-3.9204-1.4218-7.2636-4.2656-9.0312-1.6904-1.1914-3.8809-1.729-6.456-1.729-1.6133,0-2.5362.2309-2.9209.499-.3457.2691-.4991.7305-.4991,2.1909v15.8326Z"/><path class="cls-5" d="M437.49999,140.4053v-1.1153c3.0752-.2304,3.4209-.4609,3.4209-3.7265v-15.2564c0-3.2661-.3457-3.497-3.4209-3.7661v-1.1142h10.415v1.1142c-3.0742.2691-3.42089.5-3.42089,3.7661v15.2564c0,3.2656.34669,3.4961,3.42089,3.7265v1.1153h-10.415Z"/><path class="cls-5" d="M466.09179,121.3442c-.6924-2.4209-1.80669-5.1494-5.0723-5.1494-2.8057,0-4.1895,2.0367-4.1895,4.1509,0,2.6899,1.7676,3.9961,4.8799,5.5718,3.1905,1.6142,6.6494,3.458,6.6494,7.685,0,4.1123-3.4589,7.379-8.6845,7.379-1.5381,0-2.80669-.2686-3.7676-.5762-.99809-.3086-1.5752-.6153-1.99809-.8067-.30661-.8466-.80661-4.1132-1.03711-6.0722l1.1914-.3076c.6153,2.3818,2.4209,6.3408,6.3409,6.3408,2.8056,0,4.4961-1.7676,4.4961-4.4961s-2.0372-4.1123-4.919-5.6494c-2.7285-1.4209-6.418-3.3819-6.418-7.6089,0-3.7656,3.0362-6.9556,8.0704-6.9556,1.9209,0,3.61231.5,4.9189.9224.1533,1.3838.3838,2.9209.69241,5.3418l-1.15331.2304Z"/><path class="cls-5" d="M493.03219,121.4985c-.4229-1.8833-.8076-2.8828-1.3066-3.5361-.6534-.8452-1.3067-1.1523-4.1114-1.1523h-2.53709v18.7905c0,3.0752.30759,3.459,3.91989,3.6894v1.1153h-11.2978v-1.1153c3.459-.2304,3.7656-.6142,3.7656-3.6894v-18.7905h-2.1904c-3.1885,0-3.958.3457-4.458,1.1909-.461.6533-.8448,1.7676-1.2676,3.4975h-1.1914c.1533-2.3833.3838-4.9575.4609-7.0327h.8076c.5381.8838,1.03721.961,2.1133.961h15.25591c1.03808,0,1.38378-.231,1.95988-.961h.8457c0,1.729.1915,4.6494.3848,6.917l-1.1533.1157Z"/><path class="cls-5" d="M521.35449,140.7129c-.4219,0-.8448,0-1.3057-.0381-3.2666-.1553-4.80368-1.0391-6.5332-3.5361-1.2686-1.8057-2.6133-4.1504-3.72748-6.0332-.69152-1.1143-1.34482-1.5757-3.18952-1.5757h-1.1152v6.0337c0,3.2265.3466,3.4961,3.3828,3.7265v1.1153h-10.376v-1.1153c3.1133-.2304,3.458-.5,3.458-3.7265v-15.334c0-3.2271-.3447-3.4194-3.3047-3.6885v-1.1142h9.7608c2.9209,0,4.8037.3452,6.2636,1.3447,1.57622.999,2.57522,2.6899,2.57522,5.0337,0,3.3047-2.07522,5.3032-4.87992,6.5332.6534,1.2295,2.2286,3.8052,3.38092,5.5337,1.38378,2.0371,2.19138,3.0742,3.07518,4.0351.9981,1.0762,1.84382,1.5371,2.6895,1.7676l-.1543,1.0381ZM507.17479,128.2227c1.8828,0,3.15132-.3072,4.11132-1.0757,1.42288-1.1533,2.03708-2.6905,2.03708-4.7271,0-4.1499-2.6514-5.687-5.418-5.687-1.1142,0-1.7295.1533-2.03608.3843-.26952.2305-.38572.6533-.38572,1.6528v9.4527h1.6914Z"/><path class="cls-5" d="M524.58489,140.4053v-1.1153c3.07522-.2304,3.4209-.4609,3.4209-3.7265v-15.2564c0-3.2661-.34568-3.497-3.4209-3.7661v-1.1142h10.4151v1.1142c-3.0743.2691-3.42088.5-3.42088,3.7661v15.2564c0,3.2656.34658,3.4961,3.42088,3.7265v1.1153h-10.4151Z"/><path class="cls-5" d="M562.7851,134.0264c-.539,1.7676-1.499,4.6494-2.19042,5.9179-1.0762.2686-4.3428,1.0372-7.0713,1.0372-9.6836,0-13.9111-6.6485-13.9111-12.7203,0-8.0703,6.1875-13.4116,14.9101-13.4116,3.1133,0,5.76472.8462,6.8018,1.0381.3076,2.1519.5771,3.7661.8076,5.8789l-1.1914.2695c-1.0381-4.1499-3.459-5.7255-7.417-5.7255-6.2646,0-9.6074,5.3798-9.6074,11.1826,0,7.1474,4.1123,12.0273,9.876,12.0273,3.8046,0,5.8798-2.1133,7.8398-5.918l1.15332.4239Z"/><path class="cls-5" d="M587.26559,121.4985c-.4219-1.8833-.8076-2.8828-1.3057-3.5361-.6543-.8452-1.3076-1.1523-4.1123-1.1523h-2.5371v18.7905c0,3.0752.30762,3.459,3.9209,3.6894v1.1153h-11.2988v-1.1153c3.459-.2304,3.7656-.6142,3.7656-3.6894v-18.7905h-2.1904c-3.1885,0-3.958.3457-4.4571,1.1909-.4619.6533-.8457,1.7676-1.2685,3.4975h-1.1914c.15332-2.3833.3848-4.9575.4609-7.0327h.8076c.5381.8838,1.0381.961,2.1133.961h15.2569c1.0371,0,1.3837-.231,1.9589-.961h.84572c0,1.729.19238,4.6494.38478,6.917l-1.1533.1157Z"/><path class="cls-5" d="M215.21089,67.9326c-12.2393-7.1367-22.7305-10.3437-34.2363-10.3437-22.7266,0-39.6221,16.1694-39.6221,38.0234,0,22.2842,16.3145,37.7246,40.2061,37.7246,11.2187,0,23.4521-3.9331,34.667-11.2153v15.5903c-9.7588,5.0977-20.3926,8.7393-35.97949,8.7393-37.29011,0-53.60751-28.7002-53.60751-49.5318,0-30.2968,22.8702-52.4389,54.4844-52.4389,10.1983,0,20.53611,2.4785,34.0879,8.1557v15.2964Z"/></g></svg>