<svg xmlns="http://www.w3.org/2000/svg" xmlns:xlink="http://www.w3.org/1999/xlink" viewBox="0 0 137.64 200.7"><defs><style>.cls-1,.cls-2{stroke:#231f20;stroke-miterlimit:10;}.cls-1{stroke-width:8px;fill:url(#linear-gradient);}.cls-2{fill:#231f20;stroke-width:2px;}.cls-3{fill:#fff;}</style><linearGradient id="linear-gradient" x1="172.85" y1="115.17" x2="142.91" y2="-97.08" gradientTransform="translate(-80.91 74.15) rotate(11.18)" gradientUnits="userSpaceOnUse"><stop offset="0" stop-color="#64215f"/><stop offset="0.45" stop-color="#677ebd"/><stop offset="1" stop-color="#6ca9dc"/></linearGradient></defs><g id="Layer_2" data-name="Layer 2"><g id="Layer_1-2" data-name="Layer 1"><path class="cls-1" d="M133.32,128.73c-1.69-29.51-25-45.5-11.29-78.57-15.81,5.64-23.4,27.29-24.72,37.27-5.57-11.34-20.4-50.65,5.19-79.76C69.76,17.18,56.1,38.65,50.13,58,44,77.68,52.54,90.39,35.75,104.71c4.18-11.85,7-26.35-5.72-39.89C32.19,77.4,18.6,86.44,12,108.65c-7.82,26.35-.3,47.15,8.79,60.72a61.65,61.65,0,0,0,112.53-40.64Z"/><path class="cls-2" d="M1.27,123.22c-1.36,1.5,2.79,20.62,4,22.13s12.32-.3,20.43-1.51,18.3-3,19.5-4.8-1.5-9.9-1.5-9.9,3-2.1,5.41-1.8a10.26,10.26,0,0,1,4.14,1.5s2.16,9.82,4.56,11,16.8.9,23.11.3,18.08-3,18.08-3v-17l36,10.8-.6-7.8-33.94-10.21a4.48,4.48,0,0,0-1.88-3.3c-1.8-1.2-22.21-.84-26.11-.24s-17.1,2.1-18,3.6a31.24,31.24,0,0,0-1.94,5.65,5.52,5.52,0,0,0-4.67-.9,18.1,18.1,0,0,0-5.4,2.1,17.17,17.17,0,0,0-3.6-5.32c-2.1-1.8-19.5,2.7-23.41,3.3S2.63,121.72,1.27,123.22Z"/><polyline class="cls-3" points="71.63 112.88 77.64 137.27 65.93 137.27 61.13 114.14"/><polygon class="cls-3" points="74.93 112.2 80.86 136.59 85.44 136.59 80.19 112.06 74.93 112.2"/><polyline class="cls-3" points="18.44 120.05 24.22 141.41 12.95 142.78 8.33 122.62"/><polygon class="cls-3" points="21.62 119.37 27.32 140.73 31.74 140.05 26.68 118.58 21.62 119.37"/></g></g></svg>