<?xml version="1.0" encoding="UTF-8"?> <svg xmlns="http://www.w3.org/2000/svg" viewBox="0 0 295.041 127.274"><g fill="#0580c3"><path d="M48.117.058v31.693c-5.59-4.725-10.776-6.742-17.864-6.742C12.389 25.009 0 39.531 0 60.564c0 21.148 12.678 36.131 30.657 36.131 6.742 0 12.678-2.305 17.403-6.915v5.302h14.522V0L48.118.058Zm-1.614 73.587c-2.017 5.302-7.895 9.047-14.406 9.047-10.257 0-16.827-8.471-16.827-21.609 0-13.657 6.627-22.186 17.288-22.186 6.454 0 12.678 4.034 14.233 9.335.864 2.593 1.153 6.166 1.153 13.542 0 5.82-.403 9.451-1.441 11.871ZM126.948 72.089v-25.24c0-8.183-.864-11.352-4.437-15.098-4.149-4.495-11.813-6.915-21.321-6.915-9.623 0-19.304 2.305-28.64 7.03l6.051 11.64c9.623-4.149 14.406-5.302 21.033-5.302 8.932 0 12.562 3.169 12.678 10.949v2.19c-11.64 1.153-15.559 1.614-20.169 2.42-14.694 2.881-21.609 9.335-21.609 20.284 0 12.966 11.237 22.762 26.047 22.762 7.895 0 14.118-2.881 18.555-8.471 1.441 4.725 5.302 7.607 11.813 8.471l7.376-11.237c-6.685-2.708-7.376-4.149-7.376-13.484Zm-14.694 1.268c0 4.034-.576 5.59-2.593 7.318-2.593 2.305-7.03 3.919-10.776 3.919-7.03 0-12.85-4.61-12.85-10.257 0-4.61 3.054-7.318 9.796-8.932 4.495-1.037 8.183-1.441 16.423-2.305v10.257ZM159.449 71.513c0 8.471 1.729 10.488 8.932 10.488 2.42 0 5.186-.288 8.183-.864l1.844 12.793c-4.725 1.268-10.084 2.017-14.694 2.017-13.542 0-18.843-5.59-18.843-19.593V38.897h-12.505V26.392h12.505V5.244l14.52-5.186v26.334h18.094v12.505h-18.037v32.616ZM209.64 71.513c0 8.471 1.729 10.488 8.932 10.488 2.42 0 5.186-.288 8.183-.864l1.844 12.793c-4.725 1.268-10.084 2.017-14.694 2.017-13.542 0-18.843-5.59-18.843-19.593V38.897h-12.505V26.392h12.505V5.244L209.583.058v26.334h18.037v12.505h-18.037l.058 32.616ZM261.33 24.664c-19.132 0-31.982 14.579-31.982 36.419 0 21.148 13.542 35.843 33.134 35.843 19.189 0 32.558-14.81 32.558-35.843 0-21.552-13.657-36.419-33.711-36.419Zm.576 58.086c-10.661 0-17.691-8.759-17.691-21.898s7.203-22.186 17.864-22.186c10.373 0 17.288 8.817 17.288 22.186 0 13.081-7.088 21.898-17.46 21.898Z"></path></g><path fill="#545758" d="M153.533 121.84h-.97c-.112 0-.203-.031-.272-.092s-.121-.14-.155-.234l-.867-2.458h-4.159l-.867 2.458c-.03.085-.082.161-.155.227s-.164.099-.272.099h-.97l3.707-10.18h1.274l3.707 10.18Zm-6.074-3.779h3.46l-1.455-4.142c-.095-.256-.188-.575-.278-.959-.047.194-.093.373-.139.536s-.09.307-.133.43l-1.455 4.135Z"></path><path d="M158.429 106.061h3.229v6.912l5.811-6.912h3.969l-6.621 7.589 6.891 8.501h-4.215l-5.784-7.471h-.051v7.471h-3.229v-16.09Z"></path><path d="M172.965 110.9c1.191-.556 2.806-.898 4.118-.898 3.62 0 5.123 1.505 5.123 5.002v1.526c0 1.199.024 2.097.042 2.971.028.9.075 1.728.144 2.65h-2.717c-.116-.621-.116-1.405-.144-1.771h-.046c-.712 1.312-2.257 2.047-3.662 2.047-2.103 0-4.155-1.263-4.155-3.523 0-1.782.856-2.817 2.029-3.39 1.177-.579 2.703-.698 3.992-.698h1.703c0-1.912-.851-2.557-2.671-2.557-1.317 0-2.629.51-3.666 1.296l-.088-2.657Zm3.615 9.269c.945 0 1.684-.415 2.168-1.059.507-.668.642-1.522.642-2.445h-1.335c-1.382 0-3.438.23-3.438 2.049 0 1.017.856 1.454 1.963 1.454ZM191.386 112.771c-.949-.323-1.647-.51-2.768-.51-.833 0-1.829.302-1.829 1.319 0 1.887 5.379.691 5.379 4.978 0 2.764-2.471 3.869-4.979 3.869-1.186 0-2.378-.203-3.508-.505l.186-2.536c.968.486 1.982.782 3.043.782.782 0 2.029-.296 2.029-1.454 0-2.326-5.369-.735-5.369-5.02 0-2.564 2.234-3.692 4.653-3.692 1.456 0 2.396.228 3.369.438l-.205 2.331ZM203.321 121.484c-1.126.623-2.419.945-4.081.945-3.918 0-6.202-2.259-6.202-6.151 0-3.443 1.824-6.275 5.514-6.275 4.397 0 5.658 3.018 5.658 7.173h-8.217c.144 1.905 1.48 2.995 3.392 2.995 1.498 0 2.792-.552 3.937-1.198v2.513Zm-2.071-6.435c-.089-1.491-.777-2.787-2.508-2.787s-2.606 1.203-2.75 2.787h5.258ZM210.384 118.95h.047l2.857-8.673h3.136l-4.453 11.784c-.991 2.629-1.703 5.214-4.937 5.214-.73 0-1.475-.116-2.187-.323l.205-2.282c.391.14.833.205 1.596.205 1.242 0 2.001-.849 2.001-2.12l-4.541-12.477h3.411l2.866 8.673ZM217.21 110.9c1.196-.556 2.806-.898 4.122-.898 3.62 0 5.123 1.505 5.123 5.002v1.526c0 1.199.023 2.097.042 2.971.023.9.07 1.728.139 2.65h-2.717c-.121-.621-.121-1.405-.144-1.771h-.042c-.717 1.312-2.261 2.047-3.662 2.047-2.108 0-4.16-1.263-4.16-3.523 0-1.782.856-2.817 2.034-3.39 1.177-.579 2.698-.698 3.992-.698h1.703c0-1.912-.852-2.557-2.671-2.557-1.326 0-2.634.51-3.667 1.296l-.093-2.657Zm3.62 9.269c.944 0 1.679-.415 2.164-1.059.507-.668.647-1.522.647-2.445h-1.335c-1.387 0-3.443.23-3.443 2.049 0 1.017.861 1.454 1.968 1.454Z"></path><g fill="#545758"><path d="M237.902 119.737c.069 0 .132.031.188.093l.492.589c-.379.483-.84.86-1.381 1.13-.541.27-1.193.405-1.957.405-.668 0-1.274-.127-1.817-.38s-1.007-.609-1.391-1.066-.681-1.005-.893-1.645-.317-1.342-.317-2.11.113-1.471.34-2.11.544-1.189.954-1.648.9-.816 1.472-1.069c.571-.253 1.202-.38 1.892-.38.681 0 1.269.116 1.763.348.494.232.933.547 1.316.945l-.408.632a.4912.4912 0 0 1-.103.117c-.039.031-.095.046-.168.046-.056 0-.115-.023-.178-.067-.063-.045-.137-.101-.223-.167s-.188-.137-.304-.213c-.116-.076-.254-.147-.414-.213-.16-.066-.345-.122-.556-.167-.211-.045-.455-.067-.731-.067-.496 0-.95.093-1.361.28-.412.187-.767.453-1.064.799-.298.346-.529.767-.695 1.264-.166.498-.249 1.054-.249 1.669 0 .635.083 1.2.249 1.698.166.497.392.917.679 1.261s.626.605 1.019.785c.392.18.815.27 1.267.27.276 0 .524-.018.744-.053s.424-.091.611-.167c.188-.076.362-.172.524-.288s.325-.254.488-.416c.073-.071.144-.107.213-.107ZM248.84 116.753c0 .763-.11 1.462-.33 2.1-.22.637-.53 1.185-.931 1.644-.401.46-.883.816-1.446 1.069s-1.185.38-1.866.38-1.302-.127-1.862-.38a4.1806 4.1806 0 0 1-1.443-1.069c-.401-.459-.712-1.008-.931-1.644-.22-.637-.33-1.337-.33-2.1s.11-1.462.33-2.099c.22-.637.53-1.186.931-1.648.401-.462.882-.82 1.443-1.077.56-.256 1.181-.383 1.862-.383s1.303.128 1.866.383c.563.256 1.045.615 1.446 1.077.401.461.712 1.011.931 1.648.22.637.33 1.337.33 2.099Zm-1.287 0c0-.625-.078-1.186-.233-1.683-.155-.497-.375-.917-.66-1.261s-.63-.608-1.035-.792c-.405-.185-.858-.277-1.358-.277-.496 0-.947.092-1.351.277-.405.184-.751.448-1.038.792s-.508.764-.663 1.261c-.155.498-.233 1.059-.233 1.683s.078 1.185.233 1.68.376.914.663 1.258.633.606 1.038.788c.405.183.855.274 1.351.274.5 0 .953-.091 1.358-.274.405-.182.75-.445 1.035-.788s.505-.763.66-1.258.233-1.055.233-1.68ZM255.272 118.518c.045.126.089.252.133.38.043-.133.088-.259.136-.38s.101-.243.162-.366l3.137-6.258c.056-.109.114-.175.175-.199.06-.023.147-.036.259-.036h.925v10.18h-1.1v-7.481a9.1728 9.1728 0 0 1 .025-.668l-3.176 6.365c-.108.213-.259.32-.453.32h-.181c-.194 0-.345-.106-.453-.32l-3.247-6.386c.013.123.023.244.029.362.006.119.01.227.01.327v7.481h-1.1v-10.18h.925c.112 0 .198.012.259.036.06.024.119.09.175.199l3.201 6.266c.06.113.113.233.158.358ZM263.834 118.032v3.808h-1.248v-10.18h2.736c.586 0 1.096.075 1.529.224.433.149.792.361 1.077.636.285.275.497.606.637.995s.21.822.21 1.3c0 .473-.075.907-.226 1.3-.151.394-.372.732-.663 1.016s-.652.506-1.084.664-.925.238-1.481.238h-1.488Zm0-1.094h1.488c.357 0 .673-.052.947-.156s.503-.25.689-.437.326-.411.42-.672.142-.547.142-.859c0-.649-.182-1.156-.547-1.521-.364-.364-.915-.547-1.652-.547h-1.488v4.191ZM277.093 121.84h-.97c-.112 0-.203-.031-.272-.092s-.121-.14-.155-.234l-.867-2.458h-4.159l-.867 2.458c-.03.085-.082.161-.155.227s-.164.099-.272.099h-.97l3.707-10.18h1.274l3.707 10.18Zm-6.074-3.779h3.46l-1.455-4.142c-.095-.256-.188-.575-.278-.959-.047.194-.093.373-.139.536s-.09.307-.133.43l-1.455 4.135ZM279.16 111.706c.054.031.115.094.184.188l5.369 7.672a5.0985 5.0985 0 0 1-.026-.359 9.7714 9.7714 0 0 1-.006-.337v-7.21h1.1v10.18h-.634c-.099 0-.182-.019-.249-.057-.067-.038-.133-.102-.197-.192l-5.362-7.665c.009.119.015.234.019.348s.006.218.006.313v7.253h-1.1v-10.18h.647c.112 0 .195.016.249.046ZM291.615 117.79v4.049h-1.248v-4.049l-3.396-6.131h1.1c.112 0 .201.031.265.093s.121.137.168.227l2.122 3.957c.086.165.158.322.217.469.058.147.111.291.158.433.047-.147.099-.293.155-.44.056-.147.127-.3.213-.461l2.115-3.957a.925.925 0 0 1 .158-.216c.067-.069.154-.103.262-.103h1.113l-3.403 6.131Z"></path></g></svg> 